<svg width="256" height="256" viewBox="0 0 256 256" fill="none" xmlns="http://www.w3.org/2000/svg">
<rect width="256" height="256" rx="30" fill="#DE818E"/>
<path d="M159.932 207.819C155.79 210.488 147.134 214.168 142.792 215.106C136.559 216.452 132.531 216.398 127.096 214.897C124.696 214.235 120.136 213.699 116.964 213.708C106.898 213.735 103.925 211.778 99.8992 202.477C96.8221 195.368 96.4699 191.624 98.2983 185.463L99.5342 181.299L93.8987 184.269C82.8996 190.065 77.8178 190.436 66.5341 186.265C54.411 181.783 46.4388 174.367 43.8885 165.2C42.336 159.62 42.5143 155.629 44.5784 149.76C45.4131 147.387 46.3872 143.133 46.7431 140.307C47.7376 132.412 49.3223 129.509 55.7498 123.808C60.0432 120 62.2358 118.533 66.6162 116.537C69.6344 115.162 72.4071 113.769 72.7776 113.442C73.2428 113.031 72.5956 111.896 70.6866 109.776C65.9137 104.475 63.4532 95.8901 65.3561 91.1764C65.8006 90.0755 67.054 88.0756 68.1416 86.7321C69.5523 84.9895 70.3802 82.7376 71.0308 78.8737C72.5308 69.9643 73.7996 67.8502 82.2211 60.2288C89.4159 53.7176 89.4543 53.6928 94.6866 52.1718C101.13 50.2987 106.516 51.2246 111.336 55.0339C115.474 58.3037 116.18 58.4668 122.552 57.6232C129.914 56.6486 133.083 57.4005 135.68 60.738C136.828 62.213 137.915 63.1095 138.221 62.8339C138.514 62.5691 140.131 60.4971 141.814 58.2296C145.72 52.9664 147.835 51.0668 152.154 48.9428C158.903 45.6242 161.839 46.3146 179.556 55.3877C191.818 61.6674 194.618 65.9008 192.584 75.0847C191.859 78.3586 191.935 80.6771 192.881 84.1109C193.581 86.6523 193.947 89.9973 193.696 91.5443C193.112 95.1265 190.176 100.576 186.672 104.577C185.169 106.295 184.093 107.872 184.283 108.082C184.472 108.292 185.567 108.607 186.717 108.782C194.114 109.908 200.758 114.079 206.495 121.198C212.015 128.048 213.817 132.939 213.304 139.673C212.805 146.211 208.808 156.149 205.465 159.158C204.079 160.407 200.929 165.016 197.81 170.36C192.638 179.222 192.428 179.488 189.024 181.449C184.844 183.858 179.165 184.595 174.632 183.318C168.482 181.584 168.824 181.391 169.344 186.313C170.331 195.654 167.001 203.262 159.932 207.819L159.932 207.819ZM163.785 194.488C166.088 187.721 164.069 178.638 158.722 171.717C154.804 166.644 151.342 161.65 145.43 152.548C140.598 145.108 139.92 144.353 138.895 145.276C138.444 145.683 137.197 146.169 136.125 146.358C134.216 146.695 134.193 146.812 135.001 152.1C135.454 155.069 135.641 157.493 135.416 157.487C135.192 157.48 134.18 155.329 133.168 152.706C131.399 148.123 131.237 147.907 128.994 147.148C125.261 145.885 121.869 147.46 120.878 150.916C120.578 151.964 119.185 154.229 117.783 155.949C114.164 160.391 103.07 183.493 102.062 188.689C101.101 193.642 102.392 199.526 105.381 203.806C107.826 207.308 109.509 208.486 112.325 208.667C115.121 208.846 115.555 208.354 114.393 206.326C113.865 205.405 113.439 203.193 113.446 201.41L113.459 198.169L114.824 201.396C116.729 205.899 119.21 207.691 125.778 209.311C133.155 211.131 137.869 211.16 143.645 209.421C154.552 206.137 161.599 200.912 163.785 194.488L163.785 194.488ZM190.91 171.204C191.619 169.983 192.221 168.886 192.248 168.767C192.275 168.648 190.438 168.451 188.167 168.329C183.662 168.086 182.681 167.228 186.515 166.885C190.775 166.503 193.197 164.745 198.463 158.212C206.943 147.692 209.446 138.159 205.751 130.45C201.656 121.906 196.225 116.582 188.677 113.71C182.469 111.349 180.017 111.431 176.246 114.129C173.88 115.822 172.19 116.459 169.747 116.58C165.385 116.797 163.166 117.569 155.673 121.476C147.791 125.586 147.265 126.076 147.079 129.471L146.928 132.245L155.756 133.424C160.611 134.073 166.348 134.788 168.504 135.014C170.66 135.24 172.403 135.707 172.376 136.052C172.35 136.397 165.858 136.42 157.95 136.104C150.042 135.787 143.29 135.782 142.945 136.092C142.601 136.403 142.631 137.725 143.012 139.031C143.394 140.337 143.795 141.948 143.905 142.611C144.406 145.637 159.667 166.252 165.835 172.233C167.804 174.143 170.645 176.148 172.442 176.897C175.803 178.297 181.338 178.768 183.73 177.858C185.873 177.042 189.44 173.737 190.91 171.204V171.204ZM184.049 99.4537C188.521 93.3171 189.378 89.3436 187.144 85.1075C186.343 83.5875 186.101 83.5822 183.891 85.0358C180.465 87.2884 179.754 86.6505 182.297 83.6052C185.151 80.1867 187.303 74.835 187.266 71.2453C187.224 67.0541 184.779 64.7393 174.935 59.5698C158.867 51.1319 156.578 50.9226 149.549 57.248C142.707 63.4067 136.952 73.479 134.644 83.336C133.77 87.0654 133.237 103.324 133.718 111.522L133.918 114.915L136.487 114.797C138.88 114.687 139.508 114.276 145.601 108.845C150.52 104.46 151.927 103.436 151.267 104.722C150.552 106.116 142.621 116.058 141.156 117.397C140.936 117.597 141.869 118.996 143.228 120.504L145.697 123.247L151.666 119.937C154.948 118.117 161.052 115.328 165.23 113.74C169.409 112.152 173.512 110.424 174.348 109.899C176.471 108.567 180.825 103.879 184.049 99.4537V99.4537ZM138.831 139.84C138.87 138.313 138.535 137.81 136.896 136.942C134.081 135.45 133.435 133.398 136.167 134.627C140.055 136.375 144.518 131.725 143.282 127.213C142.557 124.565 139.804 122.623 137.593 123.197L135.892 123.639L136.952 122.13C138.412 120.049 137.018 118.129 134.386 118.593C133.255 118.792 131.318 118.395 130.08 117.712C127.108 116.07 124.919 116.639 124.171 119.25C123.863 120.325 123.049 121.71 122.363 122.328C120.839 123.7 120.63 125.491 121.837 126.831C122.555 127.629 121.911 127.776 118.674 127.553C112.789 127.148 111.95 130.143 117.432 131.983C119.921 132.818 119.998 132.906 120.442 135.395C121.941 143.789 121.921 143.74 123.826 143.796C125.245 143.838 125.67 143.561 126.045 142.349C126.464 140.999 126.643 141.014 127.859 142.5C129.025 143.926 129.488 144.003 131.265 143.068C132.397 142.473 134.233 142.204 135.346 142.472C137.78 143.057 138.766 142.312 138.831 139.84V139.84ZM109.196 163.29C111.062 159.749 112.687 155.95 112.806 154.848C112.924 153.746 113.834 150.726 114.828 148.138C116.769 143.079 116.523 142.934 111.633 146.251C106.246 149.906 106.149 148.98 111.419 144.206C116.904 139.237 118.29 136.799 116.035 136.084C114.729 135.671 104.73 136.874 94.7459 138.646C91.3052 139.256 89.2375 139.377 90.1509 138.915C93.5413 137.196 100.872 135.02 105.967 134.219L111.221 133.394L111.785 130.913C112.348 128.434 112.347 128.432 109.194 126.281C107.459 125.097 104.179 123.618 101.905 122.995C95.0543 121.117 78.0571 117.572 76.1775 117.629C73.4131 117.714 65.9273 121.446 61.217 125.088C55.012 129.887 52.7124 133.796 52.0166 140.728C51.7173 143.709 50.8762 147.852 50.1474 149.934C47.4644 157.598 47.8824 163.956 51.3204 167.775C52.896 169.525 54.1575 169.952 60.1001 170.749C63.917 171.261 67.508 171.811 68.0802 171.972C69.8029 172.458 64.6942 173.634 60.4655 173.726C58.3955 173.771 56.6813 174.078 56.6563 174.407C56.5678 175.569 64.7076 180.335 70.5714 182.554C77.0855 185.019 81.302 185.231 86.5333 183.356C96.7564 179.692 103.87 173.393 109.196 163.29V163.29ZM117.961 116.75C116.831 115.149 113.977 111.423 111.62 108.47C101.963 96.3738 103.614 96.0406 114.405 107.908L121.375 115.574L125.41 113.891L129.444 112.209L129.805 108.449C130.004 106.382 130.26 100.887 130.375 96.2401C130.655 84.9151 131.711 77.5545 133.743 72.7645C135.766 67.9949 135.757 64.9332 133.715 62.6649C131.794 60.532 128.992 60.2515 122.019 61.4944C116.17 62.5369 111.372 61.4715 108.699 58.5368C105.517 55.0431 98.548 54.548 92.7987 57.4073C89.3934 59.1008 81.0593 66.6321 78.8461 70.016C76.9854 72.8609 75.4424 77.9272 74.6388 83.8305C74.1656 87.3067 74.411 88.4072 76.5722 92.504C78.8963 96.9095 78.9309 97.1108 77.1378 95.8012C76.0874 95.034 74.3247 93.403 73.2206 92.1767C71.5456 90.3165 71.0428 90.1004 70.1855 90.8723C68.5147 92.3767 68.2 96.8829 69.4822 100.943C70.398 103.843 71.5819 105.758 74.5289 109.108L78.3792 113.485L91.0215 117.001C97.9747 118.936 105.703 121.528 108.196 122.762C112.926 125.104 114.454 125.54 114.528 124.569C114.563 124.108 103.807 116.367 100.572 114.525C100.152 114.286 99.8942 113.814 100 113.478C100.106 113.141 103.334 114.478 107.173 116.448C118.273 122.146 118.328 122.166 119.222 120.84C119.831 119.936 119.538 118.982 117.961 116.75L117.961 116.75Z" fill="black"/>
<path d="M30.0752 39.873C30.0752 38.5059 30.1891 37.1712 30.417 35.8691C30.6449 34.5671 30.889 33.265 31.1494 31.9629C31.4098 30.6608 31.654 29.375 31.8818 28.1055C32.1423 26.8034 32.2725 25.4688 32.2725 24.1016V23.0273C32.1097 22.8971 31.7842 22.6204 31.2959 22.1973C30.8076 21.7415 30.2542 21.2044 29.6357 20.5859C29.0498 19.9674 28.3988 19.2839 27.6826 18.5352C26.999 17.7539 26.3643 16.9564 25.7783 16.1426C25.2249 15.3288 24.7529 14.5312 24.3623 13.75C24.0042 12.9688 23.8252 12.2201 23.8252 11.5039C23.8252 11.3737 23.8252 11.1784 23.8252 10.918C23.8577 10.6576 23.8903 10.4297 23.9229 10.2344C23.988 10.0065 24.1019 9.8112 24.2646 9.64844C24.4274 9.48568 24.639 9.4043 24.8994 9.4043C25.6807 9.4043 26.348 9.61589 26.9014 10.0391C27.4873 10.4622 28.0081 10.9993 28.4639 11.6504C28.9196 12.2689 29.3428 12.9525 29.7334 13.7012C30.124 14.4173 30.5309 15.1009 30.9541 15.752C31.4098 16.3704 31.8981 16.8913 32.4189 17.3145C32.9723 17.7376 33.6234 17.9492 34.3721 17.9492C35.1208 17.9492 35.8044 17.7051 36.4229 17.2168C37.0413 16.7285 37.6273 16.1263 38.1807 15.4102C38.7666 14.6615 39.3525 13.8639 39.9385 13.0176C40.557 12.1387 41.2243 11.3411 41.9404 10.625C42.6566 9.8763 43.4704 9.25781 44.3818 8.76953C45.2933 8.28125 46.3512 8.03711 47.5557 8.03711C47.5557 8.91602 47.3441 9.71354 46.9209 10.4297C46.5303 11.1458 46.042 11.8294 45.4561 12.4805C44.8701 13.099 44.2191 13.7174 43.5029 14.3359C42.8193 14.9544 42.1683 15.6055 41.5498 16.2891C40.9639 16.9401 40.4756 17.6562 40.085 18.4375C39.6943 19.2188 39.499 20.0814 39.499 21.0254C39.499 21.4811 39.8245 22.1159 40.4756 22.9297C41.1266 23.7435 41.9242 24.6387 42.8682 25.6152C43.8447 26.5592 44.9027 27.5358 46.042 28.5449C47.1813 29.5215 48.2555 30.4329 49.2646 31.2793C50.2738 32.1257 51.1364 32.8418 51.8525 33.4277C52.5687 34.0137 53.0081 34.3717 53.1709 34.502C53.1709 34.5671 53.1872 34.7461 53.2197 35.0391C53.2523 35.2995 53.2686 35.4785 53.2686 35.5762C53.2686 36.1296 53.1383 36.6341 52.8779 37.0898C52.6501 37.5456 52.2269 37.7734 51.6084 37.7734C51.5433 37.7734 51.4456 37.7572 51.3154 37.7246C51.2178 37.6921 51.1527 37.6758 51.1201 37.6758C50.8597 37.4479 50.4854 37.1224 49.9971 36.6992C49.5413 36.2435 49.0042 35.7389 48.3857 35.1855C47.7673 34.6322 47.1162 34.0625 46.4326 33.4766C45.749 32.8581 45.098 32.2884 44.4795 31.7676C43.861 31.2142 43.2913 30.7259 42.7705 30.3027C42.2497 29.847 41.8753 29.5215 41.6475 29.3262C41.3545 29.0658 40.9801 28.7565 40.5244 28.3984C40.0687 28.0078 39.613 27.6497 39.1572 27.3242C38.734 26.9661 38.3597 26.6732 38.0342 26.4453C37.7087 26.2174 37.5296 26.1198 37.4971 26.1523L36.4229 27.2266C36.1624 27.5195 35.9671 28.1543 35.8369 29.1309C35.7393 30.1074 35.6416 31.263 35.5439 32.5977C35.4463 33.8997 35.3486 35.2832 35.251 36.748C35.1533 38.2129 34.9906 39.5638 34.7627 40.8008C34.5674 42.0378 34.2581 43.0632 33.835 43.877C33.4118 44.6908 32.8584 45.0977 32.1748 45.0977C31.5563 45.0977 31.0843 44.9023 30.7588 44.5117C30.4658 44.1211 30.2705 43.6491 30.1729 43.0957C30.0752 42.5098 30.0264 41.9238 30.0264 41.3379C30.0589 40.752 30.0752 40.2637 30.0752 39.873ZM76.2178 38.7012C74.9808 39.5475 73.9066 40.3125 72.9951 40.9961C72.1162 41.6471 71.2536 42.2005 70.4072 42.6562C69.5609 43.112 68.6494 43.4538 67.6729 43.6816C66.7288 43.9095 65.557 44.0234 64.1572 44.0234C61.1299 44.0234 58.8838 43.2259 57.4189 41.6309C55.9541 40.0033 55.2217 37.5944 55.2217 34.4043C55.2217 33.1673 55.3844 31.8815 55.71 30.5469C56.0355 29.2122 56.5075 27.8939 57.126 26.5918C57.777 25.2572 58.542 24.0039 59.4209 22.832C60.2998 21.6276 61.2926 20.5697 62.3994 19.6582C63.5062 18.7467 64.6781 18.0306 65.915 17.5098C67.1846 16.9564 68.5192 16.6797 69.9189 16.6797C72.2627 16.9076 74.1019 17.4935 75.4365 18.4375C76.7712 19.349 77.7803 20.5371 78.4639 22.002C79.1475 23.4342 79.6195 25.0456 79.8799 26.8359C80.1403 28.5938 80.3356 30.4167 80.4658 32.3047C80.6286 34.1927 80.8239 36.0807 81.0518 37.9688C81.2796 39.8568 81.7516 41.5983 82.4678 43.1934C82.0446 44.2676 81.6377 45.0163 81.2471 45.4395C80.889 45.8952 80.4821 45.9766 80.0264 45.6836C79.5706 45.3906 79.0335 44.6745 78.415 43.5352C77.8291 42.3958 77.0967 40.7845 76.2178 38.7012ZM59.3721 34.502C59.3721 36.3574 59.7139 37.7246 60.3975 38.6035C61.1136 39.4499 62.3669 39.873 64.1572 39.873C65.4919 39.873 66.7614 39.6452 67.9658 39.1895C69.2028 38.7012 70.277 38.0501 71.1885 37.2363C72.0999 36.39 72.8324 35.3809 73.3857 34.209C73.9391 33.0371 74.2158 31.735 74.2158 30.3027C74.2158 29.7168 74.2321 28.903 74.2646 27.8613C74.2972 26.7871 74.2321 25.7292 74.0693 24.6875C73.9066 23.6458 73.5973 22.7507 73.1416 22.002C72.6859 21.2207 72.0023 20.8301 71.0908 20.8301C69.3981 20.8301 67.8356 21.2695 66.4033 22.1484C64.971 22.9948 63.734 24.0853 62.6924 25.4199C61.6507 26.7546 60.8369 28.2357 60.251 29.8633C59.665 31.4583 59.3721 33.0046 59.3721 34.502ZM85.5439 28.5449C85.5439 27.6986 85.7555 27.0964 86.1787 26.7383C86.6019 26.3477 87.2855 26.1523 88.2295 26.1523H88.7178C88.8154 26.6732 88.9294 27.2754 89.0596 27.959C89.1898 28.6426 89.3851 29.3424 89.6455 30.0586C89.9059 30.7747 90.2152 31.4421 90.5732 32.0605C90.9313 32.6465 91.3708 33.1185 91.8916 33.4766C91.9242 32.3372 92.2008 31.2467 92.7217 30.2051C93.2751 29.1309 93.9424 28.1868 94.7236 27.373C95.5374 26.5267 96.4163 25.8268 97.3604 25.2734C98.3369 24.6875 99.2972 24.2969 100.241 24.1016H101.315C102.878 24.1016 104.213 24.4596 105.319 25.1758C106.426 25.8594 107.338 26.7708 108.054 27.9102C108.802 29.0169 109.372 30.2865 109.763 31.7188C110.153 33.151 110.446 34.6159 110.642 36.1133C110.869 37.5781 111 39.0104 111.032 40.4102C111.097 41.7773 111.13 42.9492 111.13 43.9258H107.565C107.37 41.9727 107.126 40.1009 106.833 38.3105C106.735 37.5944 106.605 36.8457 106.442 36.0645C106.28 35.2507 106.101 34.502 105.905 33.8184C105.71 33.1022 105.498 32.4512 105.271 31.8652C105.043 31.2467 104.782 30.7259 104.489 30.3027C104.359 30.1725 104.18 29.9935 103.952 29.7656C103.757 29.5378 103.545 29.3099 103.317 29.082C103.09 28.8542 102.878 28.6589 102.683 28.4961C102.487 28.3333 102.373 28.252 102.341 28.252C101.364 27.9915 100.518 28.1868 99.8018 28.8379C99.0856 29.4564 98.4508 30.3027 97.8975 31.377C97.3441 32.4512 96.8883 33.6719 96.5303 35.0391C96.2048 36.4062 95.9281 37.7246 95.7002 38.9941C95.4723 40.2311 95.3096 41.3216 95.2119 42.2656C95.1143 43.1771 95.0492 43.7305 95.0166 43.9258C94.2028 44.5117 93.4378 44.6908 92.7217 44.4629C92.0055 44.2025 91.3219 43.6816 90.6709 42.9004C90.0524 42.1191 89.4827 41.1426 88.9619 39.9707C88.4736 38.7988 88.0179 37.5618 87.5947 36.2598C87.1715 34.9251 86.7809 33.5905 86.4229 32.2559C86.0973 30.9212 85.8044 29.6842 85.5439 28.5449ZM134.812 38.7012C133.575 39.5475 132.5 40.3125 131.589 40.9961C130.71 41.6471 129.847 42.2005 129.001 42.6562C128.155 43.112 127.243 43.4538 126.267 43.6816C125.323 43.9095 124.151 44.0234 122.751 44.0234C119.724 44.0234 117.478 43.2259 116.013 41.6309C114.548 40.0033 113.815 37.5944 113.815 34.4043C113.815 33.1673 113.978 31.8815 114.304 30.5469C114.629 29.2122 115.101 27.8939 115.72 26.5918C116.371 25.2572 117.136 24.0039 118.015 22.832C118.894 21.6276 119.886 20.5697 120.993 19.6582C122.1 18.7467 123.272 18.0306 124.509 17.5098C125.778 16.9564 127.113 16.6797 128.513 16.6797C130.856 16.9076 132.696 17.4935 134.03 18.4375C135.365 19.349 136.374 20.5371 137.058 22.002C137.741 23.4342 138.213 25.0456 138.474 26.8359C138.734 28.5938 138.929 30.4167 139.06 32.3047C139.222 34.1927 139.418 36.0807 139.646 37.9688C139.873 39.8568 140.345 41.5983 141.062 43.1934C140.638 44.2676 140.231 45.0163 139.841 45.4395C139.483 45.8952 139.076 45.9766 138.62 45.6836C138.164 45.3906 137.627 44.6745 137.009 43.5352C136.423 42.3958 135.69 40.7845 134.812 38.7012ZM117.966 34.502C117.966 36.3574 118.308 37.7246 118.991 38.6035C119.707 39.4499 120.961 39.873 122.751 39.873C124.086 39.873 125.355 39.6452 126.56 39.1895C127.797 38.7012 128.871 38.0501 129.782 37.2363C130.694 36.39 131.426 35.3809 131.979 34.209C132.533 33.0371 132.81 31.735 132.81 30.3027C132.81 29.7168 132.826 28.903 132.858 27.8613C132.891 26.7871 132.826 25.7292 132.663 24.6875C132.5 23.6458 132.191 22.7507 131.735 22.002C131.28 21.2207 130.596 20.8301 129.685 20.8301C127.992 20.8301 126.429 21.2695 124.997 22.1484C123.565 22.9948 122.328 24.0853 121.286 25.4199C120.244 26.7546 119.431 28.2357 118.845 29.8633C118.259 31.4583 117.966 33.0046 117.966 34.502ZM144.138 28.5449C144.138 27.6986 144.349 27.0964 144.772 26.7383C145.196 26.3477 145.879 26.1523 146.823 26.1523H147.312C147.409 26.6732 147.523 27.2754 147.653 27.959C147.784 28.6426 147.979 29.3424 148.239 30.0586C148.5 30.7747 148.809 31.4421 149.167 32.0605C149.525 32.6465 149.965 33.1185 150.485 33.4766C150.518 32.3372 150.795 31.2467 151.315 30.2051C151.869 29.1309 152.536 28.1868 153.317 27.373C154.131 26.5267 155.01 25.8268 155.954 25.2734C156.931 24.6875 157.891 24.2969 158.835 24.1016H159.909C161.472 24.1016 162.806 24.4596 163.913 25.1758C165.02 25.8594 165.931 26.7708 166.647 27.9102C167.396 29.0169 167.966 30.2865 168.356 31.7188C168.747 33.151 169.04 34.6159 169.235 36.1133C169.463 37.5781 169.593 39.0104 169.626 40.4102C169.691 41.7773 169.724 42.9492 169.724 43.9258H166.159C165.964 41.9727 165.72 40.1009 165.427 38.3105C165.329 37.5944 165.199 36.8457 165.036 36.0645C164.873 35.2507 164.694 34.502 164.499 33.8184C164.304 33.1022 164.092 32.4512 163.864 31.8652C163.636 31.2467 163.376 30.7259 163.083 30.3027C162.953 30.1725 162.774 29.9935 162.546 29.7656C162.351 29.5378 162.139 29.3099 161.911 29.082C161.683 28.8542 161.472 28.6589 161.276 28.4961C161.081 28.3333 160.967 28.252 160.935 28.252C159.958 27.9915 159.112 28.1868 158.396 28.8379C157.679 29.4564 157.045 30.3027 156.491 31.377C155.938 32.4512 155.482 33.6719 155.124 35.0391C154.799 36.4062 154.522 37.7246 154.294 38.9941C154.066 40.2311 153.903 41.3216 153.806 42.2656C153.708 43.1771 153.643 43.7305 153.61 43.9258C152.797 44.5117 152.032 44.6908 151.315 44.4629C150.599 44.2025 149.916 43.6816 149.265 42.9004C148.646 42.1191 148.076 41.1426 147.556 39.9707C147.067 38.7988 146.612 37.5618 146.188 36.2598C145.765 34.9251 145.375 33.5905 145.017 32.2559C144.691 30.9212 144.398 29.6842 144.138 28.5449ZM193.405 38.7012C192.168 39.5475 191.094 40.3125 190.183 40.9961C189.304 41.6471 188.441 42.2005 187.595 42.6562C186.748 43.112 185.837 43.4538 184.86 43.6816C183.916 43.9095 182.744 44.0234 181.345 44.0234C178.317 44.0234 176.071 43.2259 174.606 41.6309C173.142 40.0033 172.409 37.5944 172.409 34.4043C172.409 33.1673 172.572 31.8815 172.897 30.5469C173.223 29.2122 173.695 27.8939 174.313 26.5918C174.965 25.2572 175.729 24.0039 176.608 22.832C177.487 21.6276 178.48 20.5697 179.587 19.6582C180.694 18.7467 181.866 18.0306 183.103 17.5098C184.372 16.9564 185.707 16.6797 187.106 16.6797C189.45 16.9076 191.289 17.4935 192.624 18.4375C193.959 19.349 194.968 20.5371 195.651 22.002C196.335 23.4342 196.807 25.0456 197.067 26.8359C197.328 28.5938 197.523 30.4167 197.653 32.3047C197.816 34.1927 198.011 36.0807 198.239 37.9688C198.467 39.8568 198.939 41.5983 199.655 43.1934C199.232 44.2676 198.825 45.0163 198.435 45.4395C198.076 45.8952 197.67 45.9766 197.214 45.6836C196.758 45.3906 196.221 44.6745 195.603 43.5352C195.017 42.3958 194.284 40.7845 193.405 38.7012ZM176.56 34.502C176.56 36.3574 176.901 37.7246 177.585 38.6035C178.301 39.4499 179.554 39.873 181.345 39.873C182.679 39.873 183.949 39.6452 185.153 39.1895C186.39 38.7012 187.465 38.0501 188.376 37.2363C189.287 36.39 190.02 35.3809 190.573 34.209C191.127 33.0371 191.403 31.735 191.403 30.3027C191.403 29.7168 191.42 28.903 191.452 27.8613C191.485 26.7871 191.42 25.7292 191.257 24.6875C191.094 23.6458 190.785 22.7507 190.329 22.002C189.873 21.2207 189.19 20.8301 188.278 20.8301C186.586 20.8301 185.023 21.2695 183.591 22.1484C182.159 22.9948 180.922 24.0853 179.88 25.4199C178.838 26.7546 178.024 28.2357 177.438 29.8633C176.853 31.4583 176.56 33.0046 176.56 34.502ZM212.106 42.8027C212.627 42.4447 213.246 41.9889 213.962 41.4355C214.711 40.8496 215.459 40.2311 216.208 39.5801C216.957 38.929 217.657 38.2454 218.308 37.5293C218.959 36.8132 219.463 36.1296 219.821 35.4785C220.212 34.7949 220.407 34.1602 220.407 33.5742C220.407 32.9883 220.114 32.5 219.528 32.1094C218.487 32.1094 217.347 32.1582 216.11 32.2559C214.873 32.321 213.636 32.3535 212.399 32.3535C211.162 32.321 209.958 32.207 208.786 32.0117C207.647 31.8164 206.621 31.4583 205.71 30.9375C204.799 30.4167 204.066 29.6842 203.513 28.7402C202.992 27.7637 202.731 26.5267 202.731 25.0293C202.731 23.2715 203.057 21.6927 203.708 20.293C204.392 18.8607 205.287 17.6074 206.394 16.5332C207.5 15.4264 208.737 14.4661 210.104 13.6523C211.504 12.806 212.904 12.0898 214.304 11.5039C215.15 11.7318 215.931 12.1387 216.647 12.7246C217.364 13.3105 217.982 13.9616 218.503 14.6777C218.275 15.3939 217.819 15.9473 217.136 16.3379C216.485 16.7285 215.72 17.0703 214.841 17.3633C213.994 17.6562 213.099 17.9655 212.155 18.291C211.211 18.6165 210.349 19.056 209.567 19.6094C208.819 20.1302 208.184 20.8301 207.663 21.709C207.142 22.5553 206.882 23.6784 206.882 25.0781C206.882 26.1198 207.142 26.8848 207.663 27.373C208.184 27.8613 208.868 28.2031 209.714 28.3984C210.56 28.5612 211.521 28.6263 212.595 28.5938C213.669 28.5286 214.759 28.4473 215.866 28.3496C217.006 28.252 218.112 28.2031 219.187 28.2031C220.261 28.1706 221.221 28.3008 222.067 28.5938C222.914 28.8542 223.581 29.2936 224.069 29.9121C224.59 30.5306 224.851 31.4421 224.851 32.6465C224.851 33.1673 224.672 33.8346 224.313 34.6484C223.988 35.4622 223.532 36.3411 222.946 37.2852C222.393 38.1966 221.726 39.1081 220.944 40.0195C220.196 40.931 219.398 41.7611 218.552 42.5098C217.738 43.2259 216.908 43.8281 216.062 44.3164C215.248 44.7721 214.483 45 213.767 45C213.083 45 212.627 44.7559 212.399 44.2676C212.204 43.7793 212.106 43.291 212.106 42.8027ZM226.901 12.5781C226.901 12.4805 226.934 12.334 226.999 12.1387C227.064 11.9434 227.146 11.7318 227.243 11.5039C227.373 11.276 227.487 11.0645 227.585 10.8691C227.715 10.6738 227.813 10.5436 227.878 10.4785C227.943 10.4785 228.024 10.4622 228.122 10.4297C228.187 10.4297 228.236 10.4297 228.269 10.4297C228.334 10.3971 228.382 10.3809 228.415 10.3809C229.034 10.3809 229.571 10.5924 230.026 11.0156C230.515 11.4388 230.922 11.9596 231.247 12.5781C231.573 13.1966 231.8 13.8477 231.931 14.5312C232.093 15.1823 232.175 15.752 232.175 16.2402C232.175 16.5658 232.126 17.0215 232.028 17.6074C231.931 18.1608 231.768 18.6816 231.54 19.1699C231.345 19.6582 231.068 20.0977 230.71 20.4883C230.384 20.8464 229.978 21.0254 229.489 21.0254C228.936 21.0254 228.496 20.6673 228.171 19.9512C227.878 19.2025 227.618 18.3561 227.39 17.4121C227.194 16.4355 227.064 15.4915 226.999 14.5801C226.934 13.6361 226.901 12.9688 226.901 12.5781Z" fill="black"/>
<path d="M41.6475 235.666C41.6475 234.038 41.8753 232.378 42.3311 230.686C42.8193 228.993 43.4704 227.349 44.2842 225.754C45.1305 224.159 46.1234 222.645 47.2627 221.213C48.4346 219.781 49.7204 218.544 51.1201 217.502C52.5524 216.428 54.0661 215.598 55.6611 215.012C57.2887 214.393 58.9652 214.084 60.6904 214.084C61.4391 214.084 62.3994 214.165 63.5713 214.328C64.7757 214.491 65.9313 214.768 67.0381 215.158C68.1774 215.549 69.1377 216.07 69.9189 216.721C70.7327 217.339 71.1396 218.088 71.1396 218.967C71.1396 219.032 71.1234 219.097 71.0908 219.162C71.0908 219.195 71.0908 219.243 71.0908 219.309C71.0583 219.374 71.042 219.439 71.042 219.504C70.9769 219.602 70.8141 219.797 70.5537 220.09C70.2933 220.35 70.1143 220.513 70.0166 220.578C69.9515 220.611 69.8701 220.627 69.7725 220.627C69.6748 220.66 69.5771 220.676 69.4795 220.676C69.3493 220.676 69.2516 220.66 69.1865 220.627C69.1214 220.627 69.0563 220.611 68.9912 220.578C68.8285 220.48 68.4378 220.285 67.8193 219.992C67.2008 219.667 66.5335 219.325 65.8174 218.967C65.1012 218.609 64.4339 218.283 63.8154 217.99C63.1969 217.665 62.8063 217.469 62.6436 217.404C62.5133 217.404 62.3831 217.388 62.2529 217.355C62.1553 217.355 62.0576 217.355 61.96 217.355C61.8623 217.323 61.7809 217.307 61.7158 217.307C60.1859 217.307 58.721 217.583 57.3213 218.137C55.9215 218.69 54.6357 219.455 53.4639 220.432C52.292 221.408 51.234 222.531 50.29 223.801C49.346 225.07 48.5322 226.421 47.8486 227.854C47.1976 229.253 46.693 230.702 46.335 232.199C46.0094 233.664 45.8467 235.096 45.8467 236.496C45.8467 238.319 46.1396 239.947 46.7256 241.379C47.3115 242.811 48.1253 244.016 49.167 244.992C50.2087 245.936 51.4456 246.652 52.8779 247.141C54.3428 247.629 55.9215 247.873 57.6143 247.873C58.5908 247.873 59.7952 247.743 61.2275 247.482C62.6598 247.222 64.027 246.799 65.3291 246.213C66.6637 245.627 67.7868 244.878 68.6982 243.967C69.6097 243.023 70.0654 241.867 70.0654 240.5C70.0654 239.947 69.984 239.523 69.8213 239.23C69.6585 238.905 69.4307 238.677 69.1377 238.547C68.8447 238.384 68.4867 238.303 68.0635 238.303C67.6403 238.27 67.2008 238.254 66.7451 238.254C66.029 238.254 65.4105 238.368 64.8896 238.596C64.3688 238.824 63.848 239.084 63.3271 239.377C62.8389 239.67 62.3343 239.93 61.8135 240.158C61.3252 240.386 60.7393 240.5 60.0557 240.5C59.2093 240.5 58.542 240.37 58.0537 240.109C57.5654 239.849 57.3213 239.247 57.3213 238.303C57.3213 237.391 57.6468 236.659 58.2979 236.105C58.9814 235.52 59.779 235.08 60.6904 234.787C61.6344 234.494 62.611 234.299 63.6201 234.201C64.6292 234.104 65.4593 234.055 66.1104 234.055C67.2822 234.055 68.3727 234.152 69.3818 234.348C70.391 234.51 71.2536 234.836 71.9697 235.324C72.7184 235.78 73.2881 236.431 73.6787 237.277C74.0693 238.091 74.2646 239.149 74.2646 240.451C74.2646 242.469 73.7113 244.227 72.6045 245.725C71.4977 247.189 70.098 248.394 68.4053 249.338C66.7451 250.282 64.9385 250.998 62.9854 251.486C61.0648 251.942 59.2744 252.17 57.6143 252.17C55.2705 252.17 53.1058 251.763 51.1201 250.949C49.167 250.135 47.4906 248.996 46.0908 247.531C44.6911 246.034 43.6006 244.276 42.8193 242.258C42.0381 240.207 41.6475 238.01 41.6475 235.666ZM98.1904 246.701C96.9535 247.548 95.8792 248.312 94.9678 248.996C94.0889 249.647 93.2262 250.201 92.3799 250.656C91.5335 251.112 90.6221 251.454 89.6455 251.682C88.7015 251.91 87.5296 252.023 86.1299 252.023C83.1025 252.023 80.8564 251.226 79.3916 249.631C77.9268 248.003 77.1943 245.594 77.1943 242.404C77.1943 241.167 77.3571 239.882 77.6826 238.547C78.0081 237.212 78.4801 235.894 79.0986 234.592C79.7497 233.257 80.5146 232.004 81.3936 230.832C82.2725 229.628 83.2653 228.57 84.3721 227.658C85.4788 226.747 86.6507 226.031 87.8877 225.51C89.1572 224.956 90.4919 224.68 91.8916 224.68C94.2354 224.908 96.0745 225.493 97.4092 226.438C98.7438 227.349 99.7529 228.537 100.437 230.002C101.12 231.434 101.592 233.046 101.853 234.836C102.113 236.594 102.308 238.417 102.438 240.305C102.601 242.193 102.797 244.081 103.024 245.969C103.252 247.857 103.724 249.598 104.44 251.193C104.017 252.268 103.61 253.016 103.22 253.439C102.862 253.895 102.455 253.977 101.999 253.684C101.543 253.391 101.006 252.674 100.388 251.535C99.8018 250.396 99.0693 248.785 98.1904 246.701ZM81.3447 242.502C81.3447 244.357 81.6865 245.725 82.3701 246.604C83.0863 247.45 84.3395 247.873 86.1299 247.873C87.4645 247.873 88.734 247.645 89.9385 247.189C91.1755 246.701 92.2497 246.05 93.1611 245.236C94.0726 244.39 94.805 243.381 95.3584 242.209C95.9118 241.037 96.1885 239.735 96.1885 238.303C96.1885 237.717 96.2048 236.903 96.2373 235.861C96.2699 234.787 96.2048 233.729 96.042 232.688C95.8792 231.646 95.57 230.751 95.1143 230.002C94.6585 229.221 93.9749 228.83 93.0635 228.83C91.3708 228.83 89.8083 229.27 88.376 230.148C86.9437 230.995 85.7067 232.085 84.665 233.42C83.6234 234.755 82.8096 236.236 82.2236 237.863C81.6377 239.458 81.3447 241.005 81.3447 242.502ZM107.517 232.492C107.517 232.199 107.533 231.906 107.565 231.613C107.598 231.288 107.663 231.011 107.761 230.783C107.858 230.523 108.005 230.311 108.2 230.148C108.428 229.986 108.737 229.904 109.128 229.904C109.453 229.904 109.812 230.165 110.202 230.686C110.625 231.174 111.049 231.809 111.472 232.59C111.895 233.339 112.302 234.169 112.692 235.08C113.116 235.992 113.474 236.838 113.767 237.619C114.092 238.368 114.353 239.019 114.548 239.572C114.743 240.126 114.857 240.419 114.89 240.451C115.313 239.312 115.785 238.075 116.306 236.74C116.826 235.406 117.461 234.169 118.21 233.029C118.991 231.857 119.903 230.881 120.944 230.1C122.019 229.318 123.321 228.928 124.851 228.928C125.632 228.928 126.364 229.058 127.048 229.318C127.764 229.546 128.382 229.904 128.903 230.393C129.457 230.848 129.896 231.402 130.222 232.053C130.547 232.704 130.71 233.452 130.71 234.299C130.71 235.015 130.417 235.52 129.831 235.812C129.278 236.105 128.643 236.252 127.927 236.252H127.438L125.339 234.152C125.274 234.152 125.225 234.136 125.192 234.104C125.127 234.104 125.062 234.104 124.997 234.104C124.965 234.071 124.916 234.055 124.851 234.055C123.711 234.055 122.816 234.38 122.165 235.031C121.547 235.65 121.075 236.431 120.749 237.375C120.424 238.286 120.212 239.263 120.114 240.305C120.049 241.314 120.017 242.242 120.017 243.088C120.017 243.739 120.082 244.406 120.212 245.09C120.342 245.741 120.489 246.392 120.651 247.043C120.814 247.661 120.961 248.312 121.091 248.996C121.221 249.647 121.286 250.331 121.286 251.047C121.286 252.414 120.554 253.098 119.089 253.098C118.275 253.098 117.429 252.674 116.55 251.828C115.671 250.949 114.792 249.842 113.913 248.508C113.067 247.173 112.253 245.708 111.472 244.113C110.69 242.486 110.007 240.907 109.421 239.377C108.835 237.847 108.363 236.464 108.005 235.227C107.679 233.99 107.517 233.078 107.517 232.492ZM131.394 247.238C131.394 245.35 131.866 243.674 132.81 242.209C133.754 240.744 134.925 239.475 136.325 238.4C137.725 237.294 139.239 236.366 140.866 235.617C142.494 234.836 144.007 234.201 145.407 233.713C146.807 233.192 147.979 232.785 148.923 232.492C149.867 232.167 150.339 231.906 150.339 231.711C150.339 230.572 150.274 229.465 150.144 228.391C150.046 227.284 149.932 226.177 149.802 225.07C149.672 223.964 149.541 222.873 149.411 221.799C149.313 220.692 149.265 219.602 149.265 218.527V215.354C150.599 214.865 151.543 214.914 152.097 215.5C152.683 216.086 152.78 217.095 152.39 218.527C152.52 219.243 152.699 220.367 152.927 221.896C153.155 223.426 153.399 225.152 153.659 227.072C153.952 228.993 154.245 231.011 154.538 233.127C154.864 235.243 155.157 237.277 155.417 239.23C155.71 241.151 155.954 242.876 156.149 244.406C156.345 245.904 156.491 247.027 156.589 247.775C156.621 247.938 156.654 248.264 156.687 248.752C156.719 249.208 156.735 249.712 156.735 250.266C156.768 250.786 156.784 251.275 156.784 251.73C156.817 252.186 156.833 252.512 156.833 252.707C155.596 252.707 154.75 252.658 154.294 252.561C153.871 252.463 153.594 252.268 153.464 251.975C153.366 251.682 153.317 251.258 153.317 250.705C153.317 250.152 153.155 249.387 152.829 248.41C151.625 249.354 150.485 250.135 149.411 250.754C148.337 251.372 147.263 251.877 146.188 252.268C145.114 252.626 144.024 252.87 142.917 253C141.843 253.163 140.687 253.244 139.45 253.244C138.409 253.244 137.399 253.163 136.423 253C135.479 252.805 134.632 252.479 133.884 252.023C133.135 251.568 132.533 250.949 132.077 250.168C131.621 249.387 131.394 248.41 131.394 247.238ZM135.642 246.213C135.642 246.734 135.756 247.157 135.983 247.482C136.211 247.808 136.504 248.085 136.862 248.312C137.22 248.54 137.595 248.703 137.985 248.801C138.409 248.866 138.815 248.898 139.206 248.898C140.345 248.898 141.566 248.687 142.868 248.264C144.203 247.808 145.424 247.189 146.53 246.408C147.67 245.594 148.597 244.634 149.313 243.527C150.062 242.421 150.437 241.216 150.437 239.914C150.437 238.905 150.257 238.205 149.899 237.814C149.541 237.424 148.858 237.229 147.849 237.229C146.807 237.229 145.586 237.473 144.187 237.961C142.819 238.449 141.485 239.1 140.183 239.914C138.913 240.728 137.839 241.688 136.96 242.795C136.081 243.869 135.642 245.008 135.642 246.213ZM159.714 239.426C159.714 237.668 159.925 235.91 160.349 234.152C160.772 232.395 161.439 230.816 162.351 229.416C163.295 228.016 164.499 226.877 165.964 225.998C167.461 225.119 169.268 224.68 171.384 224.68C172.588 224.68 173.646 224.908 174.558 225.363C175.469 225.786 176.234 226.356 176.853 227.072C177.471 227.788 177.927 228.635 178.22 229.611C178.545 230.555 178.708 231.548 178.708 232.59C178.708 234.25 178.317 235.861 177.536 237.424C176.787 238.986 175.762 240.37 174.46 241.574C173.19 242.746 171.726 243.641 170.065 244.26C168.405 244.846 166.713 244.976 164.987 244.65C165.02 245.594 165.329 246.359 165.915 246.945C166.534 247.499 167.266 247.922 168.112 248.215C168.959 248.508 169.838 248.703 170.749 248.801C171.66 248.866 172.474 248.898 173.19 248.898C173.939 248.898 174.639 248.833 175.29 248.703C175.941 248.573 176.592 248.426 177.243 248.264C177.894 248.101 178.545 247.954 179.196 247.824C179.88 247.694 180.596 247.629 181.345 247.629C181.638 247.629 181.931 247.645 182.224 247.678C182.517 247.71 182.793 247.792 183.054 247.922C183.314 248.02 183.526 248.199 183.688 248.459C183.851 248.687 183.933 248.98 183.933 249.338C183.933 249.956 183.705 250.477 183.249 250.9C182.793 251.291 182.207 251.633 181.491 251.926C180.808 252.219 180.043 252.447 179.196 252.609C178.35 252.74 177.52 252.854 176.706 252.951C175.925 253.016 175.192 253.049 174.509 253.049C173.858 253.081 173.369 253.098 173.044 253.098C170.961 253.098 169.089 252.772 167.429 252.121C165.769 251.438 164.369 250.51 163.229 249.338C162.09 248.133 161.211 246.701 160.593 245.041C160.007 243.348 159.714 241.477 159.714 239.426ZM164.89 236.252C164.89 237.391 165.036 238.221 165.329 238.742C165.655 239.263 166.42 239.523 167.624 239.523C168.47 239.523 169.3 239.377 170.114 239.084C170.928 238.758 171.66 238.319 172.312 237.766C172.995 237.212 173.532 236.561 173.923 235.812C174.313 235.064 174.509 234.25 174.509 233.371C174.509 232.883 174.46 232.378 174.362 231.857C174.297 231.337 174.134 230.865 173.874 230.441C173.614 229.986 173.272 229.628 172.849 229.367C172.458 229.074 171.937 228.928 171.286 228.928C170.31 228.928 169.414 229.156 168.601 229.611C167.819 230.035 167.152 230.604 166.599 231.32C166.045 232.004 165.622 232.785 165.329 233.664C165.036 234.51 164.89 235.373 164.89 236.252ZM186.96 236.545C186.96 235.699 187.172 235.096 187.595 234.738C188.018 234.348 188.701 234.152 189.646 234.152H190.134C190.231 234.673 190.345 235.275 190.476 235.959C190.606 236.643 190.801 237.342 191.062 238.059C191.322 238.775 191.631 239.442 191.989 240.061C192.347 240.646 192.787 241.118 193.308 241.477C193.34 240.337 193.617 239.247 194.138 238.205C194.691 237.131 195.358 236.187 196.14 235.373C196.953 234.527 197.832 233.827 198.776 233.273C199.753 232.688 200.713 232.297 201.657 232.102H202.731C204.294 232.102 205.629 232.46 206.735 233.176C207.842 233.859 208.754 234.771 209.47 235.91C210.218 237.017 210.788 238.286 211.179 239.719C211.569 241.151 211.862 242.616 212.058 244.113C212.285 245.578 212.416 247.01 212.448 248.41C212.513 249.777 212.546 250.949 212.546 251.926H208.981C208.786 249.973 208.542 248.101 208.249 246.311C208.151 245.594 208.021 244.846 207.858 244.064C207.696 243.251 207.517 242.502 207.321 241.818C207.126 241.102 206.914 240.451 206.687 239.865C206.459 239.247 206.198 238.726 205.905 238.303C205.775 238.173 205.596 237.993 205.368 237.766C205.173 237.538 204.961 237.31 204.733 237.082C204.506 236.854 204.294 236.659 204.099 236.496C203.903 236.333 203.789 236.252 203.757 236.252C202.78 235.992 201.934 236.187 201.218 236.838C200.502 237.456 199.867 238.303 199.313 239.377C198.76 240.451 198.304 241.672 197.946 243.039C197.621 244.406 197.344 245.725 197.116 246.994C196.888 248.231 196.726 249.322 196.628 250.266C196.53 251.177 196.465 251.73 196.433 251.926C195.619 252.512 194.854 252.691 194.138 252.463C193.422 252.202 192.738 251.682 192.087 250.9C191.468 250.119 190.899 249.143 190.378 247.971C189.89 246.799 189.434 245.562 189.011 244.26C188.588 242.925 188.197 241.59 187.839 240.256C187.513 238.921 187.22 237.684 186.96 236.545Z" fill="black"/>
</svg>
